<?xml version="1.0" encoding="utf-8"?>
<!-- Generator: Adobe Illustrator 25.2.0, SVG Export Plug-In . SVG Version: 6.00 Build 0)  -->
<svg version="1.1" id="레이어_1" xmlns="http://www.w3.org/2000/svg" xmlns:xlink="http://www.w3.org/1999/xlink" x="0px"
	 y="0px" viewBox="0 0 100 100" style="enable-background:new 0 0 100 100;" xml:space="preserve">
<style type="text/css">
	.st0{fill:#FFFFFF;}
	.st1{fill:#3B5998;}
</style>
<g id="g4672">
	<g id="g4678" transform="translate(375.7163,120.5527)">
		<path id="path4680" class="st0" d="M-281.2-20.6c3,0,5.5-2.5,5.5-5.5v-89c0-3-2.5-5.5-5.5-5.5h-89c-3,0-5.5,2.5-5.5,5.5v89
			c0,3,2.5,5.5,5.5,5.5L-281.2-20.6z"/>
	</g>
	<g id="g4682" transform="translate(307.7046,120.5527)">
		<path id="path4684" class="st1" d="M-238.7-20.6v-38.7h13l1.9-15.1h-14.9V-84c0-4.4,1.2-7.3,7.5-7.3l8,0v-13.5
			c-1.4-0.2-6.1-0.6-11.6-0.6c-11.5,0-19.4,7-19.4,19.9v11.1h-13v15.1h13v38.7H-238.7z"/>
	</g>
</g>
</svg>
